<?xml version="1.0" encoding="UTF-8"?>
<svg version="1.1" xmlns="http://www.w3.org/2000/svg"
     width="1024" height="1024" viewBox="0 0 1024 1024"
     preserveAspectRatio="xMidYMid meet">

  <g transform="translate(512,512) scale(0.15,-0.15) translate(-5120,-5120)" fill="#FFFFFF">

    <!-- Main tag shape and outer ring -->
    <path d="M5280 8145 c-95 -20 -176 -50 -255 -96 -60 -36 -271 -242 -1492
    -1463 -1273 -1273 -1424 -1428 -1452 -1483 -93 -186 -77 -381 44 -564 34 -50
    355 -375 1205 -1220 638 -634 1181 -1167 1207 -1187 111 -80 261 -132 383
    -132 126 0 266 49 384 134 34 25 660 644 1391 1378 1232 1234 1334 1339 1376
    1413 49 85 76 148 111 260 l23 70 3 1195 c2 815 -1 1217 -8 1265 -7 43 -26
    101 -50 151 -64 132 -175 219 -345 270 -56 17 -136 19 -1260 20 -973 2 -1212
    0 -1265 -11z m2475 -338 c51 -23 81 -52 108 -102 l22 -40 0 -1190 0 -1190 -24
    -68 c-13 -38 -45 -101 -71 -140 -36 -53 -388 -411 -1352 -1373 -1223 -1222
    -1307 -1304 -1371 -1334 -58 -29 -78 -33 -141 -33 -61 1 -84 6 -141 33 -85 40
    -215 166 -1457 1402 -991 987 -958 951 -966 1069 -8 115 -13 110 527 652 267
    269 887 885 1376 1371 958 949 941 934 1066 955 31 5 562 8 1219 7 1098 -1
    1167 -2 1205 -19z"/>
    
    <!-- Dot above the 'i' -->
    <path d="M6920 7359 c-130 -25 -256 -127 -318 -256 -36 -75 -37 -82 -37 -188
    0 -103 2 -114 32 -177 43 -91 77 -133 146 -185 241 -177 601 -58 688 228 32
    105 25 230 -18 322 -90 191 -291 295 -493 256z m191 -306 c62 -62 53 -177 -19
    -244 -90 -84 -222 -52 -252 62 -19 70 18 159 84 201 24 15 44 18 94 16 54 -4
    67 -8 93 -35z"/>
    
    <!-- The 'a' shape -->
    <path d="M5123 6410 c-391 -41 -773 -266 -1025 -602 -162 -216 -275 -470 -319
    -718 -28 -153 -30 -398 -4 -520 39 -190 109 -362 208 -510 65 -98 231 -263
    331 -330 119 -79 285 -155 421 -191 115 -31 128 -33 305 -33 208 0 304 16 499
    80 95 32 301 121 301 131 0 4 -159 244 -169 256 -4 4 -38 -7 -76 -24 -311
    -141 -651 -157 -925 -45 -153 63 -310 187 -406 322 -56 78 -127 229 -148 314
    -59 237 -34 545 63 770 169 392 484 668 869 762 118 29 339 31 462 5 373 -81
    645 -319 736 -647 24 -86 24 -305 -1 -445 -32 -189 -113 -356 -203 -419 -84
    -60 -192 -82 -251 -51 -33 16 -61 77 -61 131 0 27 183 779 216 887 5 16 -7 17
    -155 17 l-160 0 -11 -42 c-6 -24 -16 -60 -22 -80 l-11 -36 -38 48 c-70 89
    -160 140 -296 166 -328 64 -647 -188 -759 -601 -25 -92 -30 -324 -9 -404 59
    -228 218 -372 442 -400 182 -23 349 35 481 166 23 24 44 43 46 43 2 0 6 -10
    10 -23 8 -34 72 -104 122 -133 69 -41 130 -55 234 -55 277 1 513 165 649 452
    102 213 145 526 106 764 -37 228 -134 421 -299 594 -290 303 -706 448 -1153
    401z m178 -1136 c111 -33 169 -131 169 -285 0 -141 -61 -274 -168 -371 -140
    -125 -291 -130 -408 -13 -62 61 -74 97 -74 214 0 174 71 333 184 410 84 58
    196 75 297 45z"/>
  </g>
</svg>